<svg width="24" height="24" viewBox="0 0 24 24" fill="none" xmlns="http://www.w3.org/2000/svg">
<g clip-path="url(#clip0_16_1824)">
<path d="M18.3422 3.42197C18.2672 3.29072 18.1266 3.2251 17.9906 3.23447C17.9812 3.23447 17.9719 3.23447 17.9625 3.23447H6.20156C6.19219 3.23447 6.18281 3.23447 6.17813 3.23447C6.0375 3.2251 5.90156 3.29072 5.82656 3.42197L2.85938 8.55947C2.78906 8.68135 2.79375 8.82666 2.86406 8.94385L11.7656 23.2688C11.8359 23.3813 11.9531 23.447 12.0844 23.447C12.2156 23.447 12.3328 23.3813 12.4031 23.2688L21.2953 8.94385C21.3703 8.82666 21.3703 8.67666 21.3 8.55947L18.3422 3.42197ZM14.5781 9.12197L12.0844 21.2438L9.57187 9.12197H14.5781ZM9.76875 8.37197L12.0844 4.35947L14.4 8.37197H9.76875ZM12.7313 3.98916H17.3625L15.0469 8.00166L12.7313 3.98916ZM9.11719 7.99697L6.80156 3.98447H11.4328L9.11719 7.99697ZM11.2828 21.0657L3.8625 9.12197H8.80781L11.2828 21.0657ZM15.3469 9.12197H20.3063L12.8906 21.0751L15.3469 9.12197ZM20.3297 8.37197H15.6984L18.0141 4.35947L20.3297 8.37197ZM6.15 4.36416L8.46563 8.37666H3.83438L6.15 4.36416ZM1.04063 4.85166H0.375C0.16875 4.85166 0 4.68291 0 4.47666C0 4.27041 0.16875 4.10166 0.375 4.10166H1.04063V3.43135C1.04063 3.2251 1.20938 3.05635 1.41563 3.05635C1.62188 3.05635 1.79063 3.2251 1.79063 3.43135V4.09697H2.45625C2.6625 4.09697 2.83125 4.26572 2.83125 4.47197C2.83125 4.67822 2.6625 4.84697 2.45625 4.84697H1.79531V5.5126C1.79531 5.71885 1.62656 5.8876 1.42031 5.8876C1.21406 5.8876 1.04531 5.71885 1.04531 5.5126V4.85166H1.04063ZM20.7422 20.5267C20.7422 20.7329 20.5734 20.9017 20.3672 20.9017H19.7016V21.5673C19.7016 21.7735 19.5328 21.9423 19.3266 21.9423C19.1203 21.9423 18.9516 21.7735 18.9516 21.5673V20.9017H18.2812C18.075 20.9017 17.9062 20.7329 17.9062 20.5267C17.9062 20.3204 18.075 20.1517 18.2812 20.1517H18.9469V19.486C18.9469 19.2798 19.1156 19.111 19.3219 19.111C19.5281 19.111 19.6969 19.2798 19.6969 19.486V20.1517H20.3625C20.5734 20.1517 20.7422 20.3204 20.7422 20.5267ZM5.33906 16.5048L4.10156 15.947L3.54375 14.7095C3.48281 14.5735 3.34688 14.4892 3.20156 14.4892C3.05625 14.4892 2.92031 14.5735 2.85938 14.7095L2.29688 15.947L1.05938 16.5048C0.923438 16.5657 0.839062 16.697 0.839062 16.847C0.839062 16.9923 0.923438 17.1282 1.05938 17.1892L2.29688 17.747L2.85938 18.9845C2.92031 19.1204 3.05625 19.2048 3.20156 19.2048C3.34688 19.2048 3.48281 19.1204 3.54375 18.9845L4.10156 17.747L5.33906 17.1892C5.475 17.1282 5.55937 16.9923 5.55937 16.847C5.55937 16.697 5.47031 16.5657 5.33906 16.5048ZM3.66094 17.1235C3.57656 17.161 3.51094 17.2267 3.47344 17.311L3.19687 17.9204L2.92031 17.311C2.88281 17.2267 2.81719 17.161 2.73281 17.1235L2.12344 16.847L2.73281 16.5704C2.81719 16.5329 2.88281 16.4673 2.92031 16.3829L3.19687 15.7735L3.47344 16.3829C3.51094 16.4673 3.57656 16.5329 3.66094 16.5704L4.27031 16.847L3.66094 17.1235ZM23.7797 2.56885L22.5422 2.01104L21.9844 0.773535C21.9234 0.637598 21.7875 0.553223 21.6422 0.553223C21.4969 0.553223 21.3609 0.637598 21.3 0.773535L20.7422 2.01104L19.5 2.56885C19.3641 2.62979 19.2797 2.76572 19.2797 2.91104C19.2797 3.05635 19.3641 3.19229 19.5 3.25322L20.7375 3.81104L21.2953 5.04853C21.3562 5.18447 21.4922 5.26885 21.6375 5.26885C21.7828 5.26885 21.9187 5.18447 21.9797 5.04853L22.5375 3.81104L23.775 3.25322C23.9109 3.19229 23.9953 3.06104 23.9953 2.91104C24 2.76572 23.9156 2.62979 23.7797 2.56885ZM22.1063 3.1876C22.0219 3.2251 21.9563 3.29072 21.9188 3.3751L21.6422 3.98447L21.3656 3.3751C21.3281 3.29072 21.2625 3.2251 21.1781 3.1876L20.5687 2.91104L21.1781 2.63447C21.2625 2.59697 21.3281 2.53135 21.3656 2.44697L21.6422 1.8376L21.9188 2.44697C21.9563 2.53135 22.0219 2.59697 22.1063 2.63447L22.7156 2.91104L22.1063 3.1876Z" fill="#D21E6A"/>
</g>
<defs>
<clipPath id="clip0_16_1824">
<rect width="24" height="24" fill="white"/>
</clipPath>
</defs>
</svg>
